<svg xmlns="http://www.w3.org/2000/svg" viewBox="0 0 960 840" role="img" aria-labelledby="title desc">
<title id="title">Illustrative Eneon engineering system concept</title><desc id="desc">A stylised connected device, circuit paths and software interface. This is an illustrative placeholder image.</desc>
<defs><linearGradient id="bg" x1="0" x2="1" y1="0" y2="1"><stop stop-color="#0a1420"/><stop offset="1" stop-color="#173452"/></linearGradient><linearGradient id="glass" x1="0" x2="1"><stop stop-color="#235b8e" stop-opacity=".8"/><stop offset="1" stop-color="#0c2136" stop-opacity=".2"/></linearGradient><filter id="glow"><feGaussianBlur stdDeviation="7" result="b"/><feMerge><feMergeNode in="b"/><feMergeNode in="SourceGraphic"/></feMerge></filter></defs>
<rect width="960" height="840" fill="url(#bg)"/><g opacity=".23" stroke="#94c8f7" fill="none"><path d="M0 103h183l58 57h173l51-51h201l59 59h235"/><path d="M0 666h145l81-80h239l65 65h190l75-76h165"/><path d="M96 0v130m77-130v91m623 749V691m72 149V655"/></g>
<g transform="translate(140 122)"><circle cx="340" cy="292" r="225" fill="none" stroke="#4f88b6" stroke-opacity=".7"/><circle cx="340" cy="292" r="162" fill="none" stroke="#6caee6" stroke-dasharray="4 14"/><path d="M138 340 35 397M544 198l90-80M465 462l126 93" stroke="#7eb7e8" stroke-width="2"/><circle cx="35" cy="397" r="12" fill="#e53b37"/><circle cx="634" cy="118" r="12" fill="#e53b37"/><circle cx="591" cy="555" r="12" fill="#e53b37"/>
<rect x="216" y="168" width="248" height="248" rx="24" fill="url(#glass)" stroke="#8cc7f9" stroke-width="2"/><rect x="242" y="194" width="196" height="196" rx="13" fill="#102a42" stroke="#4f94ce"/><circle cx="340" cy="292" r="60" fill="#173d5c" stroke="#8dc6f3" stroke-width="2"/><circle cx="340" cy="292" r="18" fill="#e53b37" filter="url(#glow)"/><path d="M340 232v-54m0 228v-54m-60-60h-54m228 0h-54M298 250l-39-39m162 162-39-39m0-84 39-39m-162 162 39-39" stroke="#8dc6f3" stroke-width="2"/>
<g font-family="monospace" font-size="15" letter-spacing="2"><text x="18" y="429" fill="#a9cff1">SENSE</text><text x="601" y="108" fill="#a9cff1">CONNECT</text><text x="602" y="581" fill="#a9cff1">CONTROL</text><text x="273" y="490" fill="#ffffff">SYSTEM 01</text></g></g>
<g transform="translate(80 720)" font-family="monospace" font-size="13" fill="#97bddd"><text>ILLUSTRATIVE ENGINEERING CONCEPT</text><text x="620">ENEON / 001</text></g>
</svg>
